<?xml version="1.0" encoding="utf-8"?>
<?xml-stylesheet type="text/xsl" href="rss1.xsl"?>
<rss version="2.0" xmlns:atom="http://www.w3.org/2005/Atom" xmlns:content="http://purl.org/rss/1.0/modules/content/" xmlns:dc="http://purl.org/dc/elements/1.1/" xmlns:media="http://search.yahoo.com/mrss/">
<channel>
 <title>Getty</title>
 <link>http://www.gettyimg.com/</link>
 <atom:link href="http://www.gettyimg.com/" rel="self" type="application/rss+xml" />

 
                <item>
                <title><![CDATA[【Unreleased/Unofficial (lossy)】Dolby Atmos - Mercedes Sosa - Solo Le Pido A Dios (Live In Argentina 1984) [Dolby Atmos] E-AC3 JOC 5.1 16bits 48kHz]]></title>
                <link><![CDATA[https://sharemania.us/threads/mercedes-sosa-solo-le-pido-a-dios-live-in-argentina-1984-dolby-atmos-e-ac3-joc-5-1-16bits-48khz.249614/]]></link>
                <description><![CDATA[<article>
<blockquote class="messageText SelectQuoteContainer ugc baseHtml">
<img src="https://i.imgur.com/gyWw1bO.jpeg" class="bbCodeImage LbImage" alt="[​IMG]" data-url="https://i.imgur.com/gyWw1bO.jpeg" style=""><br>
<br>
Para aquellos que sean residentes de Argentina (o cualquier persona) que quieran escuchar una canción de Mercedes Sosa en Dolby Atmos. <b>Aviso: los sonidos fueron extraidos con inteligencia artificial.<br>
</b><br>
For those of you who are residents of Argentina (or anyone else) and would like to listen to a Mercedes Sosa song in Dolby Atmos. <b>Notice: the sounds were extracted with artificial intelligence.<br>
<br>
Información</b>:<br>
Mezcla estéreo extraída de Qobuz.<br>
Mezclado en Cubase 12.<br>
Codificación en Dolby Media Encoder.<br>
<br>
<div class="ToggleTriggerAnchor bbCodeSpoilerContainer">
<button type="button" class="button bbCodeSpoilerButton ToggleTrigger Tooltip JsOnly" data-target="> .SpoilerTarget"><span>Spoiler: <span class="SpoilerTitle">MediaInfo</span></span></button>
<div class="SpoilerTarget bbCodeSpoilerText">Nombre completo : Mercedes Sosa - Solo Le Pido A Dios (Dolby Atmos).m4a<br>
Formato : MPEG-4<br>
Formato del perfil : Base Media / Version 2<br>
Tamaño de archivo : 25,3 MiB<br>
Duración : 4 min 35 s<br>
Modo de tasa de bits : Constante<br>
Tasa de bits general : 769 kb/s<br>
Fecha de codificación : 2024-07-12 01:02:24 UTC<br>
Fecha de etiquetado : 2024-07-12 01:02:24 UTC<br>
<br>
Audio<br>
ID : 1<br>
Formato : E-AC-3 JOC<br>
Formato/Info : Enhanced AC-3 with Joint Object Coding<br>
Nombre comercial : Dolby Digital Plus with Dolby Atmos<br>
Ajustes del formato : Big<br>
ID códec : ec-3<br>
Duración : 4 min 35 s<br>
Tipo de tasa de bits : Constante<br>
Tasa de bits : 768 kb/s<br>
Canal(es) : 6 canales<br>
Channel layout : L R C LFE Ls Rs<br>
Velocidad de muestreo : 48,0 kHz<br>
Velocidad de fotogramas : 31,250 FPS (1536 SPF)<br>
Modo de compresión : Con pérdida<br>
Tamaño de pista : 25,2 MiB (100%)<br>
Default : Sí<br>
Alternate group : 2<br>
Fecha de codificación : 2024-07-12 01:02:24 UTC<br>
Fecha de etiquetado : 2024-07-12 01:02:24 UTC<br>
Complexity index : 16<br>
Number of dynamic objects : 15<br>
Bed channel count : 1 canal<br>
Bed channel configuration : LFE</div>
</div><br>
<div style="text-align: center"><b>Download<br>
<div class="bbCodeBlock bbCodeVfcHH HiddenContent">
<div class="attribution type">Hidden Content:</div>
<blockquote>You must reply before you can see the hidden data contained here.</blockquote>
</div></b>​</div>
<div class="messageTextEndMarker">&nbsp;</div>
</blockquote>
</article>]]></description>
                <author><![CDATA[narxerino]]></author>
                </item>

                
                <item>
                <title><![CDATA[【Music Videos】Depeche Mode - Clean (Violator Version) VJ-RoGeRs Video Edit (1080p 5.1) (Clean)]]></title>
                <link><![CDATA[https://sharemania.us/threads/depeche-mode-clean-violator-version-vj-rogers-video-edit-1080p-5-1-clean.249615/]]></link>
                <description><![CDATA[<article>
<blockquote class="messageText SelectQuoteContainer ugc baseHtml">
<img src="https://i.ibb.co/whz4DVZ/Depeche-Mode-Clean-Violator-Version-VJ-Ro-Ge-Rs-Video-Edit-1080p-5-1-mp4-thumbs-2024-07-11-21-07-13.jpg" class="bbCodeImage LbImage" alt="[​IMG]" data-url="https://i.ibb.co/whz4DVZ/Depeche-Mode-Clean-Violator-Version-VJ-Ro-Ge-Rs-Video-Edit-1080p-5-1-mp4-thumbs-2024-07-11-21-07-13.jpg" style=""> <br>
<br>
<div class="ToggleTriggerAnchor bbCodeSpoilerContainer">
<button type="button" class="button bbCodeSpoilerButton ToggleTrigger Tooltip JsOnly" data-target="> .SpoilerTarget"><span>Spoiler: <span class="SpoilerTitle">MediaInfo</span></span></button>
<div class="SpoilerTarget bbCodeSpoilerText">Depeche Mode - Clean (Violator Version) VJ-RoGeRs Video Edit (1080p 5.1).mp4<br>
Format : MPEG-4<br>
Format profile : Base Media / Version 2<br>
Codec ID : mp42 (mp42/mp41)<br>
File size : 445 MiB<br>
Duration : 6 min 1 s<br>
Overall bit rate mode : Variable<br>
Overall bit rate : 10.3 Mb/s<br>
Frame rate : 30.000 FPS<br>
Encoded date : 2024-07-11 18:23:33 UTC<br>
Tagged date : 2024-07-11 19:51:55 UTC<br>
TIM : 00:00:00:00<br>
TSC : 30<br>
TSZ : 1<br>
<br>
Video<br>
ID : 1<br>
Format : AVC<br>
Format/Info : Advanced Video Codec<br>
Format profile : Main@L4.1<br>
Format settings : CABAC / 4 Ref Frames<br>
Format settings, CABAC : Yes<br>
Format settings, Reference : 4 frames<br>
Format settings, GOP : M=4, N=30<br>
Codec ID : avc1<br>
Codec ID/Info : Advanced Video Coding<br>
Duration : 6 min 1 s<br>
Bit rate : 9 998 kb/s<br>
Width : 1 920 pixels<br>
Height : 1 080 pixels<br>
Display aspect ratio : 16:9<br>
Frame rate mode : Constant<br>
Frame rate : 30.000 FPS<br>
Color space : YUV<br>
Chroma subsampling : 4:2:0<br>
Bit depth : 8 bits<br>
Scan type : Progressive<br>
Bits/(Pixel*Frame) : 0.161<br>
Stream size : 431 MiB (97%)<br>
Language : English<br>
Encoded date : 2024-07-11 18:23:47 UTC<br>
Tagged date : 2024-07-11 18:23:47 UTC<br>
Color range : Limited<br>
Color primaries : BT.709<br>
Transfer characteristics : BT.709<br>
Matrix coefficients : BT.709<br>
Codec configuration box : avcC<br>
<br>
Audio<br>
ID : 2<br>
Format : AAC LC<br>
Format/Info : Advanced Audio Codec Low Complexity<br>
Codec ID : mp4a-40-2<br>
Duration : 6 min 1 s<br>
Source duration : 6 min 1 s<br>
Bit rate mode : Variable<br>
Bit rate : 317 kb/s<br>
Maximum bit rate : 357 kb/s<br>
Channel(s) : 6 channels<br>
Channel layout : C L R Ls Rs LFE<br>
Sampling rate : 48.0 kHz<br>
Frame rate : 46.875 FPS (1024 SPF)<br>
Compression mode : Lossy<br>
Stream size : 13.7 MiB (3%)<br>
Source stream size : 13.7 MiB (3%)<br>
Language : English<br>
Encoded date : 2024-07-11 18:23:41 UTC<br>
Tagged date : 2024-07-11 18:23:41 UTC</div>
</div><br>
<div class="bbCodeBlock bbCodeVfcHH HiddenContent">
<div class="attribution type">Hidden Content:</div>
<blockquote>You must reply before you can see the hidden data contained here.</blockquote>
</div>
<div class="messageTextEndMarker">&nbsp;</div>
</blockquote>
</article>]]></description>
                <author><![CDATA[DJ-RoGeRs-BS]]></author>
                </item>

                </channel></rss>